<?xml version="1.0" encoding="UTF-8" standalone="no"?>
<svg
   xmlns:dc="http://purl.org/dc/elements/1.1/"
   xmlns:cc="http://creativecommons.org/ns#"
   xmlns:rdf="http://www.w3.org/1999/02/22-rdf-syntax-ns#"
   xmlns:svg="http://www.w3.org/2000/svg"
   xmlns="http://www.w3.org/2000/svg"
   xmlns:sodipodi="http://sodipodi.sourceforge.net/DTD/sodipodi-0.dtd"
   xmlns:inkscape="http://www.inkscape.org/namespaces/inkscape"
   inkscape:version="1.0 (4035a4fb49, 2020-05-01)"
   sodipodi:docname="right-arrow.svg"
   viewBox="0 0 272 185"
   height="185"
   width="272"
   id="svg22"
   version="1.1">
  <metadata
     id="metadata28">
    <rdf:RDF>
      <cc:Work
         rdf:about="">
        <dc:format>image/svg+xml</dc:format>
        <dc:type
           rdf:resource="http://purl.org/dc/dcmitype/StillImage" />
        <dc:title></dc:title>
      </cc:Work>
    </rdf:RDF>
  </metadata>
  <defs
     id="defs26" />
  <sodipodi:namedview
     inkscape:current-layer="g30"
     inkscape:window-maximized="1"
     inkscape:window-y="-9"
     inkscape:window-x="-9"
     inkscape:cy="110.90909"
     inkscape:cx="144.78314"
     inkscape:zoom="2.2408088"
     showgrid="false"
     id="namedview24"
     inkscape:window-height="1001"
     inkscape:window-width="1920"
     inkscape:pageshadow="2"
     inkscape:pageopacity="0"
     guidetolerance="10"
     gridtolerance="10"
     objecttolerance="10"
     borderopacity="1"
     bordercolor="#666666"
     pagecolor="#ffffff"
     inkscape:document-rotation="0" />
  <g
     id="g30"
     inkscape:label="Image"
     inkscape:groupmode="layer">
    <path
       id="path34"
       d="m 92.191224,173.84963 c -5.650894,-4.97543 -7.989173,-7.93233 -7.66118,-9.68799 0.259664,-1.38981 17.374926,-17.90809 38.033916,-36.70733 20.65901,-18.79923 37.56343,-34.521981 37.56533,-34.939448 0.002,-0.417467 -16.90092,-16.126876 -37.56186,-34.909778 C 99.930386,37.025669 84.836596,22.357352 84.585546,20.693845 c -0.306372,-2.030188 1.797187,-4.60029 7.951259,-9.71472 4.602311,-3.8247961 8.974565,-6.9541963 9.716065,-6.9541963 1.44999,0 22.10108,18.1934103 67.61756,59.5704163 21.00874,19.098121 28.60564,26.78395 28.60564,28.940496 0,2.154208 -7.43584,9.695599 -27.91595,28.312189 -49.3918,44.89755 -66.77907,60.16271 -68.52639,60.16271 -0.94008,0 -5.369219,-3.2225 -9.842506,-7.16111 z"
       style="fill:#000000;stroke-width:1.30765" />
  </g>
</svg>
