<?xml version="1.0" encoding="UTF-8" standalone="no"?>
<svg
   xmlns:dc="http://purl.org/dc/elements/1.1/"
   xmlns:cc="http://creativecommons.org/ns#"
   xmlns:rdf="http://www.w3.org/1999/02/22-rdf-syntax-ns#"
   xmlns:svg="http://www.w3.org/2000/svg"
   xmlns="http://www.w3.org/2000/svg"
   xmlns:sodipodi="http://sodipodi.sourceforge.net/DTD/sodipodi-0.dtd"
   xmlns:inkscape="http://www.inkscape.org/namespaces/inkscape"
   version="1.1"
   id="svg22"
   width="272"
   height="185"
   viewBox="0 0 272 185"
   sodipodi:docname="up-arrow.svg"
   inkscape:version="1.0 (4035a4fb49, 2020-05-01)">
  <metadata
     id="metadata28">
    <rdf:RDF>
      <cc:Work
         rdf:about="">
        <dc:format>image/svg+xml</dc:format>
        <dc:type
           rdf:resource="http://purl.org/dc/dcmitype/StillImage" />
        <dc:title></dc:title>
      </cc:Work>
    </rdf:RDF>
  </metadata>
  <defs
     id="defs26" />
  <sodipodi:namedview
     inkscape:document-rotation="0"
     pagecolor="#ffffff"
     bordercolor="#666666"
     borderopacity="1"
     objecttolerance="10"
     gridtolerance="10"
     guidetolerance="10"
     inkscape:pageopacity="0"
     inkscape:pageshadow="2"
     inkscape:window-width="1920"
     inkscape:window-height="1001"
     id="namedview24"
     showgrid="false"
     inkscape:zoom="1.1204044"
     inkscape:cx="92.369529"
     inkscape:cy="109.61824"
     inkscape:window-x="-9"
     inkscape:window-y="-9"
     inkscape:window-maximized="1"
     inkscape:current-layer="g30" />
  <g
     inkscape:groupmode="layer"
     inkscape:label="Image"
     id="g30">
    <path
       style="fill:#000000;stroke-width:1.7505"
       d="m 245.3446,159.36302 c -6.66041,7.56462 -10.61869,10.69477 -12.96892,10.2557 -1.86048,-0.3476 -23.97284,-23.25911 -49.13862,-50.91445 -25.16575,-27.65539 -46.21317,-50.28464 -46.77202,-50.28718 -0.55884,-0.003 -21.58839,22.62457 -46.732306,50.28252 -27.54882,30.3033 -47.1847,50.50875 -49.41157,50.84481 -2.71773,0.41014 -6.15822,-2.40582 -13.0047,-10.64403 -5.1201,-6.16092 -9.3093,-12.01387 -9.3093,-13.0065 0,-1.94104 24.35478,-29.58581 79.74449,-90.516856 25.565876,-28.12357 35.854596,-38.29322 38.741466,-38.29322 2.88375,0 12.9791,9.95404 37.90038,37.36995 60.10253,66.118786 80.53738,89.394416 80.53738,91.733486 0,1.25846 -4.31383,7.18755 -9.58628,13.17577 z"
       id="path34" />
  </g>
</svg>
